<svg xmlns="http://www.w3.org/2000/svg" viewBox="0 0 900 240" role="img" aria-labelledby="t d"><title id="t">UnlockingDeFi</title><desc id="d">UnlockingDeFi — Master Solana. One adventure at a time.</desc><defs><linearGradient id="g" x1="0" y1="0" x2="1" y2="1"><stop stop-color="#14F1D9"/><stop offset=".48" stop-color="#3AA7FF"/><stop offset="1" stop-color="#D946EF"/></linearGradient><filter id="glow"><feGaussianBlur stdDeviation="4" result="b"/><feMerge><feMergeNode in="b"/><feMergeNode in="SourceGraphic"/></feMerge></filter></defs><g transform="translate(18 18)" filter="url(#glow)"><circle cx="102" cy="102" r="82" fill="#0B1020" stroke="url(#g)" stroke-width="10"/><path d="M102 39l10 35 35 10-35 10-10 35-10-35-35-10 35-10z" fill="#FFC857"/><path d="M102 78c-16 0-29 13-29 29 0 8 3 15 8 20l-20 29h82l-20-29c5-5 8-12 8-20 0-16-13-29-29-29zm0 13c9 0 16 7 16 16 0 9-7 16-16 16s-16-7-16-16 7-16 16-16z" fill="url(#g)"/><path d="M55 158c28 14 66 14 94 0" fill="none" stroke="#7B5CFF" stroke-width="6" stroke-linecap="round"/></g><g transform="translate(235 82)" font-family="Poppins,Inter,Arial,sans-serif" font-weight="700"><text x="0" y="42" font-size="54" fill="#fff" letter-spacing="1">UNLOCKING</text><text x="402" y="42" font-size="54" fill="url(#g)">DEFI</text><text x="2" y="82" font-size="17" fill="#14F1D9" letter-spacing="3">MASTER SOLANA. ONE ADVENTURE AT A TIME.</text></g></svg>